<svg width="250" height="250" viewBox="0 0 250 250" fill="none" xmlns="http://www.w3.org/2000/svg">
<g clip-path="url(#clip0_1_2)">
<circle cx="13" cy="40" r="9" stroke="#22C5AD" stroke-width="2"/>
<path d="M10 40L11.9976 42L16 38" stroke="#22C5AD" stroke-width="2" stroke-linecap="round" stroke-linejoin="round"/>
<circle cx="35" cy="40" r="9" stroke="#FF0000" stroke-width="2"/>
<path d="M37 42L35 40M35 40L33 38M35 40L37 38M35 40L33 42" stroke="#FF0000" stroke-width="1.5" stroke-linecap="round" stroke-linejoin="round"/>
<path fill-rule="evenodd" clip-rule="evenodd" d="M14 85.8493C11.4009 82.8143 7.05767 81.8763 3.80111 84.6555C0.544537 87.4346 0.0860554 92.0812 2.64346 95.3681C4.76977 98.1009 11.2047 103.865 13.3138 105.73C13.5496 105.939 13.6676 106.043 13.8053 106.084C13.9253 106.12 14.0568 106.12 14.177 106.084C14.3146 106.043 14.4325 105.939 14.6685 105.73C16.7775 103.865 23.2124 98.1009 25.3388 95.3681C27.8962 92.0812 27.4936 87.4054 24.181 84.6555C20.8685 81.9056 16.5991 82.8143 14 85.8493Z" fill="white" stroke="#95A0C5" stroke-width="2" stroke-linecap="round" stroke-linejoin="round"/>
<path fill-rule="evenodd" clip-rule="evenodd" d="M44 85.8493C41.4009 82.8143 37.0577 81.8763 33.8011 84.6555C30.5445 87.4346 30.0861 92.0812 32.6435 95.3681C34.7698 98.1009 41.2047 103.865 43.3138 105.73C43.5496 105.939 43.6676 106.043 43.8053 106.084C43.9253 106.12 44.0568 106.12 44.177 106.084C44.3146 106.043 44.4325 105.939 44.6685 105.73C46.7775 103.865 53.2124 98.1009 55.3388 95.3681C57.8962 92.0812 57.4936 87.4054 54.181 84.6555C50.8685 81.9056 46.5991 82.8143 44 85.8493Z" fill="white" stroke="#1C274C" stroke-width="2" stroke-linecap="round" stroke-linejoin="round"/>
<path fill-rule="evenodd" clip-rule="evenodd" d="M74 85.8493C71.4009 82.8143 67.0577 81.8763 63.8011 84.6555C60.5445 87.4346 60.0861 92.0812 62.6435 95.3681C64.7698 98.1009 71.2047 103.865 73.3138 105.73C73.5496 105.939 73.6676 106.043 73.8053 106.084C73.9253 106.12 74.0568 106.12 74.177 106.084C74.3146 106.043 74.4325 105.939 74.6685 105.73C76.7775 103.865 83.2124 98.1009 85.3388 95.3681C87.8962 92.0812 87.4936 87.4054 84.181 84.6555C80.8685 81.9056 76.5991 82.8143 74 85.8493Z" fill="#FF0000"/>
<g filter="url(#filter0_d_1_2)">
<circle cx="11" cy="11" r="11" fill="white"/>
</g>
<path fill-rule="evenodd" clip-rule="evenodd" d="M11 6.47943C9.64046 4.90357 7.36863 4.41656 5.6652 5.85958C3.96176 7.30259 3.72194 9.71523 5.05966 11.4219C6.17188 12.8409 9.53785 15.8336 10.641 16.8023C10.7644 16.9106 10.8262 16.9648 10.8982 16.9861C10.9609 17.0046 11.0297 17.0046 11.0926 16.9861C11.1646 16.9648 11.2262 16.9106 11.3497 16.8023C12.4529 15.8336 15.8188 12.8409 16.931 11.4219C18.2688 9.71523 18.0582 7.28741 16.3255 5.85958C14.5928 4.43174 12.3596 4.90357 11 6.47943Z" stroke="#444444" stroke-width="1.5" stroke-linecap="round" stroke-linejoin="round"/>
<g filter="url(#filter1_d_1_2)">
<circle cx="35" cy="11" r="11" fill="white"/>
</g>
<path fill-rule="evenodd" clip-rule="evenodd" d="M35 6.47943C33.6405 4.90357 31.3686 4.41656 29.6652 5.85958C27.9618 7.30259 27.7219 9.71523 29.0597 11.4219C30.1719 12.8409 33.5379 15.8336 34.641 16.8023C34.7644 16.9106 34.8262 16.9648 34.8982 16.9861C34.9609 17.0046 35.0297 17.0046 35.0926 16.9861C35.1646 16.9648 35.2262 16.9106 35.3497 16.8023C36.4529 15.8336 39.8188 12.8409 40.931 11.4219C42.2688 9.71523 42.0582 7.28741 40.3255 5.85958C38.5928 4.43174 36.3596 4.90357 35 6.47943Z" fill="#FF0000"/>
<path d="M182.714 63.0588V71.4706C182.714 72.3153 183.354 73 184.143 73H189.857C190.646 73 191.286 72.3153 191.286 71.4706V63.0588M182.714 63.0588H182M182.714 63.0588H184.143M191.286 63.0588H192M191.286 63.0588H189.857M184.143 63.0588V61.5294C184.143 60.6847 184.782 60 185.571 60H188.429C189.218 60 189.857 60.6847 189.857 61.5294V63.0588M184.143 63.0588H189.857M185.571 66.1176V69.9412M188.429 66.1176V69.9412" stroke="#95A0C5" stroke-width="1.5" stroke-linecap="round" stroke-linejoin="round"/>
<path d="M201.5 63.25V71.5C201.5 72.3284 202.172 73 203 73H209C209.828 73 210.5 72.3284 210.5 71.5V63.25M201.5 63.25H200.75M201.5 63.25H203M210.5 63.25H211.25M210.5 63.25H209M203 63.25V61.75C203 60.9216 203.672 60.25 204.5 60.25H207.5C208.328 60.25 209 60.9216 209 61.75V63.25M203 63.25H209M204.5 66.25V70M207.5 66.25V70" stroke="#FF0000" stroke-width="1.5" stroke-linecap="round" stroke-linejoin="round"/>
<path fill-rule="evenodd" clip-rule="evenodd" d="M21 116.384C17.0013 111.714 10.3195 110.271 5.3094 114.547C0.299287 118.822 -0.406068 125.971 3.5284 131.028C6.79965 135.232 16.6996 144.1 19.9442 146.97C20.3071 147.291 20.4887 147.451 20.7005 147.514C20.8851 147.569 21.0874 147.569 21.2722 147.514C21.484 147.451 21.6653 147.291 22.0285 146.97C25.2731 144.1 35.1729 135.232 38.4443 131.028C42.3787 125.971 41.7594 118.778 36.6631 114.547C31.5669 110.316 24.9987 111.714 21 116.384Z" fill="#FF0000"/>
<path fill-rule="evenodd" clip-rule="evenodd" d="M21 119.294C17.5345 116.259 11.7436 115.321 7.40148 118.1C3.05938 120.879 2.44807 125.526 5.85795 128.813C8.69303 131.545 17.273 137.309 20.085 139.175C20.3995 139.383 20.5569 139.488 20.7404 139.529C20.9004 139.564 21.0757 139.564 21.2359 139.529C21.4195 139.488 21.5766 139.383 21.8913 139.175C24.7034 137.309 33.2832 131.545 36.1184 128.813C39.5282 125.526 38.9915 120.85 34.5747 118.1C30.158 115.35 24.4655 116.259 21 119.294Z" fill="url(#paint0_linear_1_2)"/>
<path d="M154 35V46C154 47.1046 154.895 48 156 48H164C165.105 48 166 47.1046 166 46V35M154 35H153M154 35H156M166 35H167M166 35H164M156 35V33C156 31.8954 156.895 31 158 31H162C163.105 31 164 31.8954 164 33V35M156 35H164M158 39V44M162 39V44" stroke="#95A0C5" stroke-width="1.5" stroke-linecap="round" stroke-linejoin="round"/>
<path d="M176 35V46C176 47.1046 176.895 48 178 48H186C187.105 48 188 47.1046 188 46V35M176 35H175M176 35H178M188 35H189M188 35H186M178 35V33C178 31.8954 178.895 31 180 31H184C185.105 31 186 31.8954 186 33V35M178 35H186M180 39V44M184 39V44" stroke="white" stroke-width="1.5" stroke-linecap="round" stroke-linejoin="round"/>
<path d="M198 35V46C198 47.1046 198.895 48 200 48H208C209.105 48 210 47.1046 210 46V35M198 35H197M198 35H200M210 35H211M210 35H208M200 35V33C200 31.8954 200.895 31 202 31H206C207.105 31 208 31.8954 208 33V35M200 35H208M202 39V44M206 39V44" stroke="#FF0000" stroke-width="1.5" stroke-linecap="round" stroke-linejoin="round"/>
<path d="M115 73L110 68M110 68L105 63M110 68L115 63M110 68L105 73" stroke="#95A0C5" stroke-width="2" stroke-linecap="round" stroke-linejoin="round"/>
<path d="M151 73L145.5 67.5M145.5 67.5L140 62M145.5 67.5L151 62M145.5 67.5L140 73" stroke="#95A0C5" stroke-width="2.5" stroke-linecap="round" stroke-linejoin="round"/>
<path d="M171 73L165.5 67.5M165.5 67.5L160 62M165.5 67.5L171 62M165.5 67.5L160 73" stroke="#1C274C" stroke-width="2.5" stroke-linecap="round" stroke-linejoin="round"/>
<path d="M118.778 98.7279V92.364M118.778 92.364V86M118.778 92.364H125.142M118.778 92.364H112.414" stroke="#444444" stroke-width="1.5" stroke-linecap="round" stroke-linejoin="round"/>
<path d="M141.278 96.864L136.778 92.364M136.778 92.364L132.278 87.864M136.778 92.364L141.278 87.864M136.778 92.364L132.278 96.864" stroke="#FF0000" stroke-width="1.5" stroke-linecap="round" stroke-linejoin="round"/>
<path d="M106.142 92.364H99.7782H93.4142" stroke="#444444" stroke-width="1.5" stroke-linecap="round" stroke-linejoin="round"/>
<path d="M93.7782 131.456V118.728M93.7782 118.728V106M93.7782 118.728H106.506M93.7782 118.728H81.0503" stroke="white" stroke-width="2" stroke-linecap="round" stroke-linejoin="round"/>
<path d="M163.778 127.728L154.778 118.728M154.778 118.728L145.778 109.728M154.778 118.728L163.778 109.728M154.778 118.728L145.778 127.728" stroke="#FF0000" stroke-width="2" stroke-linecap="round" stroke-linejoin="round"/>
<path d="M137.506 118.728H124.778H112.05" stroke="white" stroke-width="2" stroke-linecap="round" stroke-linejoin="round"/>
<path d="M132 73L127 68M127 68L122 63M127 68L132 63M127 68L122 73" stroke="#0D6EFD" stroke-width="2" stroke-linecap="round" stroke-linejoin="round"/>
<path d="M139.5 18.05L133.872 21.4729C133.74 21.5531 133.588 21.5925 133.434 21.5863C133.28 21.58 133.131 21.5284 133.007 21.4379C132.882 21.3474 132.787 21.222 132.733 21.0775C132.679 20.9331 132.67 20.776 132.705 20.626L134.222 14.2146L129.226 9.91979C129.109 9.8193 129.025 9.68653 128.983 9.53817C128.942 9.38981 128.945 9.23249 128.993 9.08598C129.04 8.93947 129.13 8.81032 129.251 8.71477C129.372 8.61922 129.518 8.56153 129.672 8.54896L136.237 8.01042L138.779 1.93229C138.839 1.79011 138.939 1.66868 139.067 1.58327C139.195 1.49786 139.346 1.45229 139.5 1.45229C139.654 1.45229 139.805 1.49786 139.933 1.58327C140.061 1.66868 140.161 1.79011 140.221 1.93229L142.762 8.01042L149.328 8.54896C149.482 8.56171 149.628 8.61953 149.749 8.71515C149.869 8.81077 149.959 8.93994 150.007 9.08641C150.054 9.23288 150.057 9.39014 150.016 9.53841C149.974 9.68668 149.89 9.81937 149.773 9.91979L144.778 14.2146L146.295 20.626C146.33 20.776 146.321 20.9331 146.267 21.0775C146.213 21.222 146.118 21.3474 145.993 21.4379C145.869 21.5284 145.72 21.58 145.566 21.5863C145.412 21.5925 145.26 21.5531 145.128 21.4729L139.5 18.05Z" fill="#107C05"/>
<path d="M120.625 35.125L122.746 37.2463M111.25 46.7498L111.286 46.5006C111.412 45.6192 111.474 45.1784 111.618 44.7669C111.745 44.4017 111.918 44.0544 112.134 43.7337C112.378 43.3722 112.692 43.0574 113.322 42.4278L122.058 33.6917C122.644 33.1059 123.594 33.1059 124.179 33.6917C124.765 34.2775 124.765 35.2273 124.179 35.813L115.283 44.7093C114.712 45.2806 114.426 45.5662 114.101 45.7933C113.812 45.9949 113.501 46.1619 113.173 46.2909C112.804 46.4363 112.408 46.5161 111.616 46.6759L111.25 46.7498Z" stroke="#95A0C5" stroke-width="1.5" stroke-linecap="round" stroke-linejoin="round"/>
<path d="M139.625 35.125L141.746 37.2463M130.25 46.7498L130.286 46.5006C130.412 45.6192 130.474 45.1784 130.618 44.7669C130.745 44.4017 130.918 44.0544 131.134 43.7337C131.378 43.3722 131.692 43.0574 132.322 42.4278L141.058 33.6917C141.644 33.1059 142.594 33.1059 143.179 33.6917C143.765 34.2775 143.765 35.2273 143.179 35.813L134.283 44.7093C133.712 45.2806 133.426 45.5662 133.101 45.7933C132.812 45.9949 132.501 46.1619 132.173 46.2909C131.804 46.4363 131.408 46.5161 130.616 46.6759L130.25 46.7498Z" stroke="#0D6EFD" stroke-width="1.5" stroke-linecap="round" stroke-linejoin="round"/>
<path d="M60.222 41.6945L59.5201 42.316C59.6892 42.507 59.9288 42.6208 60.1837 42.6311C60.4386 42.6416 60.6867 42.5478 60.8708 42.3711L60.222 41.6945ZM62.8988 40.4268C63.2726 40.0684 63.2851 39.4749 62.9267 39.1011C62.5684 38.7275 61.9749 38.715 61.6012 39.0733L62.8988 40.4268ZM59.2019 39.1285C58.8586 38.7409 58.2661 38.7049 57.8785 39.0481C57.4908 39.3914 57.4549 39.9839 57.7982 40.3715L59.2019 39.1285ZM69.6646 37.2616C70.0163 37.6417 70.6094 37.6648 70.9894 37.3132C71.3695 36.9616 71.3926 36.3684 71.041 35.9884L69.6646 37.2616ZM66.0546 33.8125C62.3225 33.8125 59.2845 36.8162 59.2845 40.537H61.1595C61.1595 37.8656 63.3441 35.6875 66.0546 35.6875V33.8125ZM59.2845 40.537V41.6945H61.1595V40.537H59.2845ZM60.8708 42.3711L62.8988 40.4268L61.6012 39.0733L59.5731 41.0178L60.8708 42.3711ZM60.9238 41.0729L59.2019 39.1285L57.7982 40.3715L59.5201 42.316L60.9238 41.0729ZM71.041 35.9884C69.8039 34.6511 68.0265 33.8125 66.0546 33.8125V35.6875C67.4849 35.6875 68.7693 36.2938 69.6646 37.2616L71.041 35.9884Z" fill="#666666"/>
<path d="M71.7735 40.3054L72.4744 39.6827C72.305 39.4921 72.0654 39.3787 71.8106 39.3686C71.5559 39.3585 71.308 39.4526 71.1241 39.6292L71.7735 40.3054ZM69.1006 41.5726C68.7271 41.9312 68.7152 42.5247 69.0739 42.8981C69.4325 43.2716 70.026 43.2836 70.3994 42.925L69.1006 41.5726ZM72.7991 42.8715C73.143 43.2585 73.7356 43.2935 74.1226 42.9496C74.5098 42.6057 74.5447 42.0132 74.2009 41.6261L72.7991 42.8715ZM62.3086 44.7559C61.9543 44.3784 61.361 44.3595 60.9834 44.7139C60.6059 45.0681 60.5871 45.6615 60.9414 46.039L62.3086 44.7559ZM65.9185 48.1874C69.6595 48.1874 72.711 45.187 72.711 41.4629H70.836C70.836 44.1309 68.6448 46.3124 65.9185 46.3124V48.1874ZM72.711 41.4629V40.3054H70.836V41.4629H72.711ZM71.1241 39.6292L69.1006 41.5726L70.3994 42.925L72.4229 40.9816L71.1241 39.6292ZM71.0726 40.9281L72.7991 42.8715L74.2009 41.6261L72.4744 39.6827L71.0726 40.9281ZM60.9414 46.039C62.1818 47.3606 63.9544 48.1874 65.9185 48.1874V46.3124C64.49 46.3124 63.2068 45.713 62.3086 44.7559L60.9414 46.039Z" fill="#666666"/>
<path d="M66 53.5C72.9036 53.5 78.5 47.9036 78.5 41C78.5 34.0964 72.9036 28.5 66 28.5C59.0964 28.5 53.5 34.0964 53.5 41C53.5 47.9036 59.0964 53.5 66 53.5Z" stroke="#666666" stroke-width="1.5"/>
<path d="M88.222 41.6945L87.5201 42.316C87.6892 42.507 87.9288 42.6208 88.1837 42.6311C88.4386 42.6416 88.6867 42.5478 88.8708 42.3711L88.222 41.6945ZM90.8988 40.4268C91.2726 40.0684 91.2851 39.4749 90.9267 39.1011C90.5684 38.7275 89.9749 38.715 89.6012 39.0733L90.8988 40.4268ZM87.2019 39.1285C86.8586 38.7409 86.2661 38.7049 85.8785 39.0481C85.4908 39.3914 85.4549 39.9839 85.7982 40.3715L87.2019 39.1285ZM97.6646 37.2616C98.0163 37.6417 98.6094 37.6648 98.9894 37.3132C99.3695 36.9616 99.3926 36.3684 99.041 35.9884L97.6646 37.2616ZM94.0546 33.8125C90.3225 33.8125 87.2845 36.8162 87.2845 40.537H89.1595C89.1595 37.8656 91.3441 35.6875 94.0546 35.6875V33.8125ZM87.2845 40.537V41.6945H89.1595V40.537H87.2845ZM88.8708 42.3711L90.8988 40.4268L89.6012 39.0733L87.5731 41.0178L88.8708 42.3711ZM88.9238 41.0729L87.2019 39.1285L85.7982 40.3715L87.5201 42.316L88.9238 41.0729ZM99.041 35.9884C97.8039 34.6511 96.0265 33.8125 94.0546 33.8125V35.6875C95.4849 35.6875 96.7693 36.2938 97.6646 37.2616L99.041 35.9884Z" fill="#0D6EFD"/>
<path d="M99.7735 40.3054L100.474 39.6827C100.305 39.4921 100.065 39.3787 99.8106 39.3686C99.5559 39.3585 99.308 39.4526 99.1241 39.6292L99.7735 40.3054ZM97.1006 41.5726C96.7271 41.9312 96.7153 42.5247 97.0739 42.8981C97.4325 43.2716 98.026 43.2836 98.3994 42.925L97.1006 41.5726ZM100.799 42.8715C101.143 43.2585 101.736 43.2935 102.123 42.9496C102.51 42.6057 102.545 42.0132 102.201 41.6261L100.799 42.8715ZM90.3086 44.7559C89.9543 44.3784 89.361 44.3595 88.9834 44.7139C88.6059 45.0681 88.5871 45.6615 88.9414 46.039L90.3086 44.7559ZM93.9185 48.1874C97.6595 48.1874 100.711 45.187 100.711 41.4629H98.836C98.836 44.1309 96.6448 46.3124 93.9185 46.3124V48.1874ZM100.711 41.4629V40.3054H98.836V41.4629H100.711ZM99.1241 39.6292L97.1006 41.5726L98.3994 42.925L100.423 40.9816L99.1241 39.6292ZM99.0726 40.9281L100.799 42.8715L102.201 41.6261L100.474 39.6827L99.0726 40.9281ZM88.9414 46.039C90.1818 47.3606 91.9544 48.1874 93.9185 48.1874V46.3124C92.49 46.3124 91.2068 45.713 90.3086 44.7559L88.9414 46.039Z" fill="#0D6EFD"/>
<path d="M94 53.5C100.904 53.5 106.5 47.9036 106.5 41C106.5 34.0964 100.904 28.5 94 28.5C87.0964 28.5 81.5 34.0964 81.5 41C81.5 47.9036 87.0964 53.5 94 53.5Z" stroke="#0D6EFD" stroke-width="1.5"/>
<path d="M163.5 2.91667C161.605 2.91667 159.752 3.47872 158.176 4.53175C156.6 5.58478 155.371 7.08149 154.646 8.83262C153.921 10.5837 153.731 12.5106 154.101 14.3696C154.471 16.2286 155.383 17.9362 156.724 19.2764C158.064 20.6167 159.771 21.5294 161.63 21.8992C163.489 22.269 165.416 22.0792 167.167 21.3538C168.918 20.6285 170.415 19.4002 171.468 17.8242C172.521 16.2482 173.083 14.3954 173.083 12.5C173.083 11.2415 172.835 9.99532 172.354 8.83262C171.872 7.66991 171.166 6.61345 170.276 5.72356C169.387 4.83367 168.33 4.12776 167.167 3.64615C166.005 3.16455 164.758 2.91667 163.5 2.91667ZM168.939 10.8105L163.189 16.0813C163.007 16.2482 162.768 16.3384 162.521 16.3331C162.274 16.3277 162.039 16.2272 161.864 16.0525L158.989 13.1775C158.898 13.0891 158.825 12.9834 158.774 12.8665C158.724 12.7495 158.698 12.6238 158.697 12.4965C158.695 12.3693 158.72 12.2431 158.768 12.1253C158.816 12.0076 158.887 11.9006 158.977 11.8106C159.067 11.7206 159.174 11.6494 159.292 11.6013C159.41 11.5531 159.536 11.5288 159.663 11.5299C159.79 11.531 159.916 11.5575 160.033 11.6077C160.15 11.6579 160.256 11.7309 160.344 11.8225L162.57 14.0487L167.644 9.39787C167.831 9.22606 168.079 9.13569 168.333 9.14666C168.587 9.15762 168.826 9.26901 168.998 9.45633C169.17 9.64365 169.26 9.89155 169.249 10.1455C169.238 10.3994 169.127 10.6386 168.939 10.8105Z" fill="#137C51"/>
<path d="M182 7.16667C180.846 7.16667 179.718 7.50879 178.759 8.14976C177.8 8.79074 177.052 9.70178 176.611 10.7677C176.169 11.8336 176.054 13.0065 176.279 14.138C176.504 15.2696 177.059 16.309 177.875 17.1248C178.691 17.9406 179.73 18.4962 180.862 18.7212C181.994 18.9463 183.166 18.8308 184.232 18.3893C185.298 17.9478 186.209 17.2001 186.85 16.2408C187.491 15.2815 187.833 14.1537 187.833 13C187.833 12.234 187.682 11.4754 187.389 10.7677C187.096 10.0599 186.666 9.41689 186.125 8.87521C185.583 8.33354 184.94 7.90386 184.232 7.6107C183.525 7.31755 182.766 7.16667 182 7.16667ZM185.311 11.9716L181.811 15.1799C181.7 15.2815 181.554 15.3364 181.404 15.3332C181.254 15.3299 181.111 15.2687 181.004 15.1624L179.254 13.4124C179.199 13.3586 179.154 13.2942 179.124 13.2231C179.093 13.1519 179.077 13.0754 179.076 12.9979C179.076 12.9204 179.09 12.8436 179.12 12.7719C179.149 12.7003 179.192 12.6351 179.247 12.5804C179.302 12.5256 179.367 12.4823 179.439 12.4529C179.51 12.4236 179.587 12.4088 179.665 12.4095C179.742 12.4102 179.819 12.4263 179.89 12.4569C179.961 12.4874 180.025 12.5319 180.079 12.5876L181.434 13.9427L184.522 11.1117C184.636 11.0072 184.787 10.9522 184.942 10.9588C185.096 10.9655 185.242 11.0333 185.347 11.1473C185.451 11.2614 185.506 11.4123 185.5 11.5668C185.493 11.7214 185.425 11.867 185.311 11.9716Z" fill="#137C51"/>
<path d="M43.5459 58.4439C42.9479 57.852 41.9783 57.852 41.3803 58.4439L33.896 65.8586C32.7009 67.0425 32.7014 68.9609 33.8969 70.1443L41.3858 77.5561C41.9838 78.148 42.9535 78.148 43.5515 77.5561C44.1495 76.9642 44.1495 76.0046 43.5515 75.4127L37.1418 69.069C36.5437 68.4771 36.5437 67.5175 37.1418 66.9256L43.5459 60.5872C44.144 59.9954 44.144 59.0359 43.5459 58.4439Z" fill="#1C274C"/>
<path d="M17.5459 58.4439C16.9479 57.852 15.9783 57.852 15.3803 58.4439L7.89601 65.8586C6.70095 67.0425 6.70141 68.9609 7.89693 70.1443L15.3858 77.5561C15.9838 78.148 16.9535 78.148 17.5515 77.5561C18.1495 76.9642 18.1495 76.0046 17.5515 75.4127L11.1418 69.069C10.5437 68.4771 10.5437 67.5175 11.1418 66.9256L17.5459 60.5872C18.144 59.9954 18.144 59.0359 17.5459 58.4439Z" fill="#95A0C5"/>
<path d="M60.4541 77.5561C61.0521 78.148 62.0217 78.148 62.6197 77.5561L70.104 70.1414C71.2991 68.9575 71.2986 67.0391 70.1031 65.8557L62.6142 58.4439C62.0162 57.852 61.0465 57.852 60.4485 58.4439C59.8505 59.0358 59.8505 59.9954 60.4485 60.5873L66.8582 66.931C67.4563 67.5229 67.4563 68.4825 66.8582 69.0744L60.4541 75.4128C59.856 76.0046 59.856 76.9641 60.4541 77.5561Z" fill="#95A0C5"/>
<path d="M82.4541 77.5561C83.0521 78.148 84.0217 78.148 84.6197 77.5561L92.104 70.1414C93.2991 68.9575 93.2986 67.0391 92.1031 65.8557L84.6142 58.4439C84.0162 57.852 83.0465 57.852 82.4485 58.4439C81.8505 59.0358 81.8505 59.9954 82.4485 60.5873L88.8582 66.931C89.4563 67.5229 89.4563 68.4825 88.8582 69.0744L82.4541 75.4128C81.856 76.0046 81.856 76.9641 82.4541 77.5561Z" fill="#424242"/>
<g clip-path="url(#clip1_1_2)">
<path d="M197.902 17.9044L198.333 17.8889C199.536 17.8533 200.32 19.6667 201.222 19.6667H208.333C209.222 19.6667 209.396 18.3578 209.384 17.8156C209.384 17.8156 210.482 17.3244 209.98 15.3467C210.191 15.1476 210.356 14.9058 210.465 14.6375C210.574 14.3692 210.625 14.0806 210.613 13.7911C210.623 13.5115 210.576 13.2328 210.473 12.9725C210.371 12.7121 210.216 12.4756 210.018 12.2778C210.394 11.8271 210.605 11.2606 210.613 10.6733C210.613 9.71778 209.773 9.17333 208.88 9.17333H206.269C203.993 9.17333 204.184 7.97333 204.184 7.97333C204.184 7.97333 203.927 4.83333 203.127 3.39556C202.122 1.57778 200.111 2.18444 200.858 4.53111C201.416 6.26 198.858 8.86444 197.933 9.74222" fill="#FFDAC6"/>
<path d="M197.022 8.52667H192.318C191.429 8.52667 191.4 9.19333 191.4 10.0089V17.5422C191.4 18.36 191.427 19.0222 192.318 19.0222H197.022C197.911 19.0222 197.94 18.3556 197.94 17.5422V10.0089C197.94 9.19111 197.916 8.52667 197.022 8.52667Z" fill="#22C5AD"/>
<path d="M194.671 17.3422C195.133 17.3422 195.507 16.9681 195.507 16.5067C195.507 16.0452 195.133 15.6711 194.671 15.6711C194.21 15.6711 193.836 16.0452 193.836 16.5067C193.836 16.9681 194.21 17.3422 194.671 17.3422Z" fill="white"/>
<path d="M208.322 20.0667H201.222C200.647 20.0667 200.18 19.6044 199.727 19.1578C199.273 18.7111 198.838 18.2689 198.351 18.2889L197.924 18.3022L197.889 17.5044L198.316 17.4911C199.129 17.4511 199.744 18.0622 200.278 18.5889C200.616 18.9222 200.964 19.2556 201.211 19.2556H208.322C208.376 19.2568 208.43 19.2463 208.48 19.2248C208.53 19.2034 208.575 19.1714 208.611 19.1311C208.891 18.8467 208.98 18.1711 208.971 17.8133V17.5467L209.216 17.4378C209.24 17.4244 209.991 17.0267 209.584 15.4378L209.504 15.1289L209.747 15C210.051 14.6659 210.211 14.2249 210.191 13.7733C210.201 13.5524 210.167 13.3317 210.091 13.1241C210.014 12.9165 209.897 12.7262 209.747 12.5644L209.429 12.2956L209.711 11.9889C210.018 11.6115 210.19 11.1421 210.2 10.6556C210.2 9.9 209.509 9.55556 208.867 9.55556H206.269C205.229 9.55556 204.491 9.31555 204.093 8.84444C203.879 8.5995 203.767 8.28093 203.782 7.95556C203.751 7.62 203.482 4.84444 202.778 3.57111C202.373 2.85556 201.816 2.62667 201.473 2.77778C201.131 2.92889 200.94 3.48222 201.24 4.41111C201.836 6.26 199.596 8.72889 198.209 10.0356L197.667 9.44444C199.284 7.92 200.876 5.86 200.484 4.64889C200 3.14889 200.547 2.30444 201.151 2.03778C201.818 1.75333 202.811 1.99333 203.473 3.18889C204.304 4.68444 204.569 7.79778 204.584 7.92889V7.97778V8.02444C204.587 8.14512 204.636 8.26024 204.72 8.34667C204.86 8.50222 205.251 8.76222 206.276 8.76222H208.867C210.082 8.76222 211 9.57778 211 10.6622C210.994 11.2256 210.827 11.7755 210.518 12.2467C210.839 12.6935 211.008 13.2319 211 13.7822C211.01 14.3992 210.799 14.9995 210.407 15.4756C210.731 17.0311 210.124 17.7511 209.767 18.0333C209.747 18.4289 209.647 19.2267 209.182 19.7022C209.071 19.8182 208.938 19.9103 208.79 19.973C208.642 20.0356 208.483 20.0675 208.322 20.0667Z" fill="#576065"/>
<path d="M197.022 19.4222H192.318C191 19.4222 191 18.2911 191 17.5422V10.0089C191 9.26 191 8.12667 192.318 8.12667H197.022C198.34 8.12667 198.34 9.26 198.34 10.0089V17.5422C198.333 18.2911 198.333 19.4222 197.022 19.4222ZM192.318 8.92667C191.898 8.92667 191.8 9.02667 191.8 10.0089V17.5422C191.8 18.5222 191.898 18.6222 192.318 18.6222H197.022C197.442 18.6222 197.54 18.5222 197.54 17.5422V10.0089C197.54 9.02667 197.442 8.92667 197.022 8.92667H192.318Z" fill="#576065"/>
</g>
<path d="M154.081 83.28L149.281 88.08H172.719L167.919 83.28H154.081ZM149 89V90.88H173V89H149ZM150.44 91.92V102H153.32V91.92H150.44ZM154.28 91.92V98.64H157.16V91.92H154.28ZM164.84 91.92V98.64H167.72V91.92H164.84ZM168.68 91.92V102H171.56V91.92H168.68Z" fill="white"/>
<path d="M184 92V87C184 85.3432 185.343 84 187 84C188.657 84 190 85.3432 190 87V91.9673M185.4 102H188.6C190.84 102 191.96 102 192.816 101.564C193.569 101.18 194.18 100.569 194.564 99.816C195 98.9603 195 97.8402 195 95.6V93.2C195 92.0799 195 91.5198 194.782 91.092C194.59 90.7157 194.284 90.4097 193.908 90.218C193.48 90 192.92 90 191.8 90H182.2C181.08 90 180.52 90 180.092 90.218C179.716 90.4097 179.41 90.7157 179.218 91.092C179 91.5198 179 92.0799 179 93.2V95.6C179 97.8402 179 98.9603 179.436 99.816C179.819 100.569 180.431 101.18 181.184 101.564C182.04 102 183.16 102 185.4 102Z" stroke="white" stroke-width="2" stroke-linecap="round" stroke-linejoin="round"/>
<g clip-path="url(#clip2_1_2)">
<path d="M211 92H202V93.5H211V92Z" fill="white"/>
<path d="M208 88.25H200.5V89.75H208V88.25Z" fill="white"/>
<path d="M221.439 92.4548L219.189 87.2048C219.132 87.0698 219.035 86.9547 218.913 86.8738C218.79 86.793 218.647 86.7499 218.5 86.75H216.25V85.25C216.25 85.0511 216.171 84.8603 216.03 84.7197C215.89 84.579 215.699 84.5 215.5 84.5H203.5V86H214.75V95.4172C214.408 95.6156 214.109 95.8797 213.87 96.1943C213.631 96.5089 213.456 96.8677 213.357 97.25H208.643C208.461 96.543 208.027 95.9269 207.422 95.517C206.818 95.1072 206.085 94.9319 205.361 95.0239C204.636 95.1159 203.97 95.4689 203.488 96.0168C203.005 96.5647 202.739 97.2698 202.739 98C202.739 98.7302 203.005 99.4353 203.488 99.9832C203.97 100.531 204.636 100.884 205.361 100.976C206.085 101.068 206.818 100.893 207.422 100.483C208.027 100.073 208.461 99.457 208.643 98.75H213.357C213.52 99.3933 213.893 99.9638 214.417 100.371C214.941 100.779 215.586 101 216.25 101C216.914 101 217.559 100.779 218.083 100.371C218.607 99.9638 218.98 99.3933 219.143 98.75H220.75C220.949 98.75 221.14 98.671 221.28 98.5303C221.421 98.3897 221.5 98.1989 221.5 98V92.75C221.5 92.6485 221.479 92.548 221.439 92.4548ZM205.75 99.5C205.453 99.5 205.163 99.412 204.917 99.2472C204.67 99.0824 204.478 98.8481 204.364 98.574C204.251 98.2999 204.221 97.9983 204.279 97.7074C204.337 97.4164 204.48 97.1491 204.689 96.9393C204.899 96.7296 205.166 96.5867 205.457 96.5288C205.748 96.4709 206.05 96.5006 206.324 96.6142C206.598 96.7277 206.832 96.92 206.997 97.1666C207.162 97.4133 207.25 97.7033 207.25 98C207.25 98.3977 207.091 98.779 206.81 99.0602C206.529 99.3414 206.148 99.4995 205.75 99.5ZM216.25 88.25H218.006L219.613 92H216.25V88.25ZM216.25 99.5C215.953 99.5 215.663 99.412 215.417 99.2472C215.17 99.0824 214.978 98.8481 214.864 98.574C214.751 98.2999 214.721 97.9983 214.779 97.7074C214.837 97.4164 214.98 97.1491 215.189 96.9393C215.399 96.7296 215.666 96.5867 215.957 96.5288C216.248 96.4709 216.55 96.5006 216.824 96.6142C217.098 96.7277 217.332 96.92 217.497 97.1666C217.662 97.4133 217.75 97.7033 217.75 98C217.75 98.3977 217.591 98.779 217.31 99.0602C217.029 99.3414 216.648 99.4995 216.25 99.5ZM220 97.25H219.143C218.978 96.6076 218.604 96.0382 218.081 95.631C217.557 95.2239 216.913 95.0019 216.25 95V93.5H220V97.25Z" fill="white"/>
</g>
<rect x="50" y="4" width="14" height="14" fill="white" stroke="#137C51" stroke-width="2"/>
<circle cx="57" cy="11" r="3.5" fill="#107C05" stroke="#137C51"/>
<rect x="68" y="4" width="14" height="14" fill="white" stroke="#FF0404" stroke-width="2"/>
<circle cx="75" cy="11" r="4" fill="#FF0000"/>
<rect x="87" y="4" width="14" height="14" fill="white" stroke="#FFC294" stroke-width="2"/>
<g clip-path="url(#clip3_1_2)">
<path d="M97.24 10.67C96.865 7.97 95.155 6.5 94 6.5C92.845 6.5 91.135 7.97 90.76 10.67C90.4 13.37 91.585 15.5 94 15.5C96.415 15.5 97.6 13.37 97.24 10.67Z" fill="#FFC294"/>
<path opacity="0.33" d="M97.24 10.67C96.94 8.54 95.815 7.175 94.78 6.695C95.485 7.4 96.115 8.51 96.31 10.01C96.685 12.71 95.5 14.84 93.07 14.84C92.545 14.84 92.08 14.735 91.69 14.555C92.245 15.155 93.025 15.5 94 15.5C96.415 15.5 97.6 13.37 97.24 10.67Z" fill="#D3976E"/>
</g>
</g>
<defs>
<filter id="filter0_d_1_2" x="-2" y="0" width="26" height="26" filterUnits="userSpaceOnUse" color-interpolation-filters="sRGB">
<feFlood flood-opacity="0" result="BackgroundImageFix"/>
<feColorMatrix in="SourceAlpha" type="matrix" values="0 0 0 0 0 0 0 0 0 0 0 0 0 0 0 0 0 0 127 0" result="hardAlpha"/>
<feOffset dy="2"/>
<feGaussianBlur stdDeviation="1"/>
<feComposite in2="hardAlpha" operator="out"/>
<feColorMatrix type="matrix" values="0 0 0 0 0 0 0 0 0 0 0 0 0 0 0 0 0 0 0.25 0"/>
<feBlend mode="normal" in2="BackgroundImageFix" result="effect1_dropShadow_1_2"/>
<feBlend mode="normal" in="SourceGraphic" in2="effect1_dropShadow_1_2" result="shape"/>
</filter>
<filter id="filter1_d_1_2" x="22" y="0" width="26" height="26" filterUnits="userSpaceOnUse" color-interpolation-filters="sRGB">
<feFlood flood-opacity="0" result="BackgroundImageFix"/>
<feColorMatrix in="SourceAlpha" type="matrix" values="0 0 0 0 0 0 0 0 0 0 0 0 0 0 0 0 0 0 127 0" result="hardAlpha"/>
<feOffset dy="2"/>
<feGaussianBlur stdDeviation="1"/>
<feComposite in2="hardAlpha" operator="out"/>
<feColorMatrix type="matrix" values="0 0 0 0 0 0 0 0 0 0 0 0 0 0 0 0 0 0 0.25 0"/>
<feBlend mode="normal" in2="BackgroundImageFix" result="effect1_dropShadow_1_2"/>
<feBlend mode="normal" in="SourceGraphic" in2="effect1_dropShadow_1_2" result="shape"/>
</filter>
<linearGradient id="paint0_linear_1_2" x1="21" y1="116.444" x2="21" y2="139.556" gradientUnits="userSpaceOnUse">
<stop stop-color="#FF0000"/>
<stop offset="0.0001" stop-color="#EDEDED" stop-opacity="0.5"/>
<stop offset="0.649038" stop-color="#EDEDED" stop-opacity="0"/>
</linearGradient>
<clipPath id="clip0_1_2">
<rect width="250" height="250" fill="white"/>
</clipPath>
<clipPath id="clip1_1_2">
<rect width="20" height="20" fill="white" transform="translate(191 1)"/>
</clipPath>
<clipPath id="clip2_1_2">
<rect width="24" height="24" fill="white" transform="translate(199 80)"/>
</clipPath>
<clipPath id="clip3_1_2">
<rect width="9.6" height="9.6" fill="white" transform="translate(89.2 6.2)"/>
</clipPath>
</defs>
</svg>
